<svg width="162" height="188" viewBox="0 0 162 188" fill="none" xmlns="http://www.w3.org/2000/svg">
<g opacity="0.1">
<path d="M71.2922 27.3961C77.6084 25.2819 82.7122 27.0571 86.0195 33.3412C88.9562 30.8456 92.0061 28.1059 95.9077 29.9168C100.297 31.954 104.896 32.9013 109.608 33.6044C113.362 34.4563 113.335 37.7085 113.778 40.5854C116.931 41.4552 120.667 41.7055 123.594 43.0637C127.495 44.8746 126.169 49.0083 126.029 52.5046C126.63 52.4868 127.117 52.7131 127.962 52.8085C135.714 54.6255 137.871 62.7501 132.746 68.6824C132.162 69.3018 131.465 70.1655 130.637 70.6717C127.587 73.4115 127.622 74.6147 131.297 76.914C136.565 80.2498 139.402 86.9091 138.128 92.8476C137.901 93.336 138.162 94.0508 138.406 94.1639C141.497 97.0827 140.511 100.484 139.883 103.754C139.254 107.024 136.919 109.501 133.834 111.038C133.364 111.413 133.007 111.544 132.292 111.806C133.082 118.406 131.086 120.151 124.465 124.201C119.969 126.863 113.209 126.101 109.631 122.956C108.106 124.326 106.223 125.826 104.829 127.554C102.624 130.389 98.5471 130.871 95.116 128.685C94.6283 128.459 94.2368 127.386 93.6357 127.404C87.8862 128.298 89.7959 123.544 88.8652 120.441C83.8473 121.674 79.5713 119.392 75.0686 117.599C71.5413 116.259 69.2676 116.688 67.4369 119.993C64.5861 125.497 62.5802 131.096 59.7294 136.599C56.992 141.859 56.5454 147.291 56.2293 153.08C55.9132 158.87 53.691 161.104 47.6633 160.68C39.3448 160.084 32.5169 156.915 26.4653 151.435L26.2214 151.322C24.985 150.155 22.3988 148.064 22.6255 147.575C23.759 145.133 25.7373 142.787 27.7328 141.041C29.3712 139.427 32.2459 138.981 33.3965 137.14C35.3577 134.192 36.5874 130.904 37.3293 127.39C38.5865 120.85 39.2426 114.328 40.2731 108.276C38.2089 107.615 36.7458 106.936 35.1693 106.501C34.0806 106.292 32.9918 106.084 31.9202 106.477C25.9612 108.46 22.0767 107.251 18.6731 101.812C18.4293 101.699 18.0721 101.83 17.8282 101.717C11.9826 103.456 8.81247 101.985 6.25381 96.6418C5.99279 95.927 5.60128 94.8548 5.94131 94.1222C7.99869 90.3281 6.09256 86.7721 5.14469 83.0672C4.49215 81.2803 5.86946 78.9514 6.17517 77.0156C6.3847 75.9256 6.59423 74.8356 6.33321 74.1208C4.91479 70.7911 6.09294 65.6985 9.02955 63.2029C11.3823 61.3268 13.4911 59.3375 15.2256 56.8776C18.5813 52.202 23.0154 51.5887 27.9714 52.4049C25.7013 44.5245 27.5148 40.6173 34.7722 37.7526C34.6796 30.2893 41.0405 25.5245 48.3046 27.1151C49.1495 27.2105 50.4478 26.329 51.0317 25.7096C55.9123 19.6641 62.1323 18.3957 68.0363 22.9168C69.3861 23.8401 70.0386 25.627 71.2922 27.3961ZM112.038 114.575C111.42 113.991 111.176 113.878 110.933 113.765C110.184 112.824 109.435 111.883 108.686 110.942C109.888 110.906 111.334 110.983 112.406 110.59C113.835 110.066 115.751 109.769 116.205 108.792C117.242 107.195 117.304 105.147 117.967 103.08C118.08 102.835 117.235 102.74 117.105 102.383C116.243 101.686 115.381 100.989 114.275 100.179C115.216 99.4283 116.157 98.6779 117.228 98.2848C120.199 96.9924 120.488 94.455 120.776 91.9176C121.065 89.3802 119.715 88.4569 117.407 87.6825C114.742 87.0391 114.577 85.4785 116.816 83.8466C117.287 83.4713 117.888 83.4535 118.115 82.9651C118.795 81.4998 120.189 79.7726 120.024 78.212C119.877 77.253 117.682 76.2344 116.332 75.3111C116.088 75.1979 115.374 75.4599 115.244 75.1026C114.512 74.763 113.537 74.3103 113.519 73.7087C113.502 73.1071 114.2 72.2435 114.67 71.8682C115.141 71.493 115.968 70.9867 116.683 70.7247C120.481 68.9261 120.56 67.4787 117.94 64.1847C116.442 62.3024 114.883 62.4691 113.097 63.1242C109.299 64.9229 109.299 64.9229 107.863 60.9916C107.21 59.2047 106.07 57.1914 104.72 56.2681C101.777 54.3083 97.8478 55.7496 95.3989 58.4715C93.5339 60.574 91.4079 61.9618 89.1685 63.5937C88.698 63.9689 87.8531 63.8736 87.3653 63.6472C86.991 63.1767 86.8433 62.2177 86.8262 61.6161C87.5853 58.7035 88.5882 55.904 89.2168 52.634C90.1854 48.6314 87.8087 45.4506 83.9414 44.8429C79.5864 44.0088 79.0815 43.1808 80.5207 38.803C80.8436 37.4688 81.1493 35.5329 80.5139 34.3476C78.965 30.6606 75.211 29.8086 71.9 31.8336C71.0723 32.3399 69.6435 32.864 68.7986 32.7686C68.3109 32.5423 67.545 30.9995 67.6412 30.1538C68.0088 26.169 65.0997 25.4124 62.304 24.4116C59.0205 23.1844 56.2934 24.59 54.8028 27.1631C54.0094 28.8725 53.7208 31.4099 52.6492 31.803C51.2204 32.3271 49.2525 30.82 47.4321 30.272C44.2792 29.4022 41.9265 31.2783 39.8176 33.2677C38.066 35.126 39.0757 36.7819 40.4426 38.3068C40.817 38.7773 40.8513 39.9805 40.5113 40.7131C40.0407 41.0884 38.9691 41.4814 38.2376 41.1419C35.9296 40.3675 34.5179 41.4932 33.2368 42.9762C30.204 46.3176 30.4203 49.683 32.3265 53.239C33.8582 56.3245 32.7076 58.1649 29.2146 58.0278C26.9238 57.8549 24.5024 57.3247 22.2116 57.1519C21.1228 56.9433 19.3368 57.5985 19.1101 58.0869C18.7426 62.0717 15.5278 63.2509 13.0617 65.3712C10.8223 67.0032 9.33168 69.5762 10.7158 71.7027C12.7181 74.4129 11.1931 75.7828 9.92915 77.8675C9.23191 78.7312 8.77853 79.708 8.569 80.798C8.71667 81.757 9.12535 83.4307 9.85691 83.7703C14.1329 86.0517 14.1329 86.0517 11.9622 90.09C11.7355 90.5785 11.1516 91.1979 11.2821 91.5553C12.0652 93.6996 12.6215 96.3323 14.119 98.2146C15.8603 100.21 17.2376 97.8812 18.7625 96.5113C20.1742 95.3856 22.0907 95.0879 23.6328 94.3196C23.7976 95.8802 23.9625 97.4407 24.2407 98.7571C24.6493 100.431 25.3019 102.218 26.0677 103.761C27.9671 102.861 29.9969 102.319 31.6524 101.307C32.8374 100.669 33.5174 99.2042 34.5719 98.2096C35.0424 97.8343 35.7568 97.5723 36.4712 97.3103C36.7322 98.025 37.2371 98.853 37.1409 99.6988C37.1752 100.902 36.9657 101.992 37 103.195C40.0671 101.057 41.3139 98.3707 38.9544 95.7915C35.8462 92.2711 32.3979 89.4834 29.063 86.4515C27.9571 85.6414 26.6073 84.7181 24.7251 86.219C24.1413 86.8384 21.9466 85.8198 20.8407 85.0097C20.353 84.7833 20.171 82.6211 20.171 82.6211C22.297 81.2334 22.9256 77.9634 26.4185 78.1006C28.4655 78.1602 29.8772 77.0345 28.0054 74.6817C26.7518 72.9126 27.449 72.0489 29.3827 72.3528C31.0725 72.5435 32.7623 72.7342 34.9398 73.1512C35.4722 70.727 36.0046 68.3028 36.537 65.8786C36.7809 65.9917 37.1381 65.8607 37.3819 65.9739C37.6601 67.2903 37.6944 68.4935 38.086 69.5656C38.3641 70.882 38.8862 72.3115 39.1643 73.6279C40.3321 72.389 41.4999 71.1502 42.5372 69.5539C42.6505 69.3097 42.8772 68.8213 43.1039 68.3329C43.6706 67.1119 44.3678 66.2482 45.1784 65.1404C44.8041 64.6698 43.942 63.9729 42.8361 63.1628C43.7772 62.4123 44.4744 61.5487 45.4155 60.7982C46.2776 61.4951 46.7824 62.3231 47.6445 63.02C52.2881 61.3167 53.2635 61.7694 52.6692 66.2426C55.8221 67.1124 56.5641 63.5982 59.195 63.0384C58.7588 64.6168 58.192 65.8378 57.7558 67.4163C57.1101 70.0847 56.351 72.9973 56.3063 75.6479C56.3234 76.2495 58.2914 77.7565 58.762 77.3813C61.6195 76.3331 64.2161 74.5701 67.3004 73.0335C66.1773 71.6218 65.6553 70.1923 64.5494 69.3822C62.4509 67.5177 63.6015 65.6773 64.7521 63.8368C64.9788 63.3484 65.937 63.1995 66.5381 63.1817C66.7819 63.2949 67.4002 63.8786 67.4173 64.4802C67.6783 65.195 67.3383 65.9276 67.3555 66.5292C71.1541 64.7306 72.7478 65.767 72.9984 70.3356C78.9746 68.954 78.0575 74.7614 80.0598 77.4716C80.1559 76.6258 80.0254 76.2684 79.8949 75.911C79.5996 73.9931 80.0186 71.8131 82.4228 71.7417C84.5832 71.5571 84.5213 73.6061 84.6862 75.1667C84.9987 77.6862 85.9122 80.188 82.9585 82.0819C82.6013 82.213 82.6184 82.8146 82.7489 83.1719C83.2881 85.2031 83.4701 87.3653 84.1398 89.7538C85.2114 89.3607 85.9258 89.0987 86.8841 88.9498C87.4851 88.932 88.2167 89.2715 88.7044 89.4979C87.4747 92.7857 88.955 94.0664 91.9774 94.5788C91.9774 94.5788 92.2213 94.692 92.1079 94.9362C93.1005 95.9905 93.4026 102.364 92.8359 103.585C92.4959 104.317 91.912 104.937 91.3281 105.556C92.4168 105.765 93.2618 105.86 94.3505 106.069C94.5944 106.182 95.0821 106.408 95.8136 106.748C94.8725 107.498 94.0448 108.004 93.7048 108.737C93.2514 109.714 93.1724 111.161 93.7906 111.745C96.6549 115.152 96.655 115.152 93.9794 118.363C93.7527 118.851 93.526 119.339 93.4126 119.584C94.5357 120.995 95.5283 122.05 96.6514 123.461C97.0086 123.33 97.6096 123.312 98.0802 122.937C100.32 121.305 102.672 119.429 105.842 120.901C106.574 121.24 108.003 120.716 108.7 119.852C109.267 118.631 110.531 116.547 112.038 114.575ZM92.5438 114.431C89.8786 113.788 87.5705 113.014 85.5235 112.954C81.7867 112.704 78.6338 111.834 75.9171 109.386C72.2078 105.883 72.4964 103.346 77.1228 101.041C79.4926 99.7662 82.1064 98.6048 84.5896 97.0861C83.3807 92.6664 80.688 95.2752 78.4143 95.7039C73.9802 96.3172 69.5633 97.5321 65.2426 97.9012C61.2791 98.1393 59.895 96.0128 60.7503 92.2544C61.7018 87.6502 64.1163 83.725 67.6368 80.61C69.519 79.1091 71.4012 77.6082 73.2834 76.1073C73.1529 75.7499 73.2662 75.5057 73.1357 75.1483C71.5764 75.315 69.8866 75.1243 68.7016 75.7616C65.9746 77.1672 63.378 78.9302 60.6509 80.3357C57.5666 81.8723 55.0148 80.9847 54.1974 77.6372C53.5277 75.2487 53.9296 72.4671 53.7304 69.7033C51.1786 68.8157 51.0034 71.1089 50.4538 72.9315C49.6157 77.2915 48.9081 82.0089 48.07 86.3689C47.9738 87.2147 47.0327 87.9652 46.5793 88.942C45.6039 88.4893 44.3846 87.9234 43.8798 87.0954C41.4859 83.313 39.336 79.6438 37.186 75.9746C35.6267 76.1413 34.0674 76.308 32.5081 76.4747C31.488 78.6726 30.4679 80.8704 29.3344 83.3125C30.3098 83.7652 31.4157 84.5753 32.3911 85.0281C38.0341 88.8344 43.0931 93.2602 43.9001 100.461C44.1164 103.827 43.7317 107.21 43.5908 110.706C42.9862 119.033 41.8939 127.134 38.7545 135.175C37.6382 138.219 35.9037 140.678 32.9328 141.971C31.7478 142.608 30.5629 143.245 29.1341 143.769C29.8657 144.109 30.5972 144.449 31.0678 144.073C33.9253 143.025 36.4772 143.913 39.0463 145.402C41.6153 146.891 44.4282 148.494 47.3373 149.25C50.2463 150.007 52.5715 151.383 53.8594 154.355C54.069 153.265 54.1651 152.419 54.2613 151.573C54.9861 147.458 55.467 143.229 56.4356 139.226C56.8547 137.046 58.1187 134.961 59.0254 133.008C60.4817 129.231 61.9381 125.455 63.6383 121.792C67.2653 113.978 71.5345 111.804 79.4683 115.783C81.1753 116.575 83.1261 117.481 84.9293 117.427C86.8801 118.332 90.0159 118.601 92.5438 114.431ZM122.065 73.8163C123.136 73.4232 124.452 73.1433 125.393 72.3929C126.804 71.2672 127.842 69.6709 128.879 68.0747C130.03 66.2342 131.537 64.2627 132.07 61.8385C132.812 58.3243 131.314 56.442 127.935 56.0607C126.245 55.87 124.328 56.1677 121.924 56.2391C121.759 54.6785 121.595 53.1179 121.43 51.5574C120.77 45.3151 117.714 43.5995 112.503 46.5238C110.961 47.2921 110.247 47.5542 109.708 45.523C109.299 43.8493 108.986 41.3297 107.88 40.5196C105.05 38.3156 102.09 35.7543 97.3501 38.3034C98.4321 34.0566 95.784 34.0147 93.4932 33.8419C91.2023 33.6691 88.5714 34.2288 87.8123 37.1415C87.4894 38.4757 87.7676 39.792 88.1763 41.4658C87.5753 41.4836 86.3732 41.5193 84.9272 41.4418C87.8534 42.8 91.4769 43.2945 92.861 45.421C94.2451 47.5475 93.747 51.1749 93.9633 54.5403C97.1095 50.9547 100.977 51.5624 104.731 52.4143C106.307 52.8492 108.258 53.7547 109.137 55.0532C111.009 57.406 112.393 59.5325 115.886 59.6697C117.088 59.634 118.194 60.4441 119.3 61.2542C122.879 64.3993 123.243 68.7237 122.065 73.8163ZM112.114 121.437C117.183 122.009 120.886 121.056 124.458 119.746C128.387 118.305 128.37 117.703 126.106 114.278C124.853 112.509 125.856 109.709 127.868 108.566C129.768 107.667 131.781 106.523 133.419 104.909C136.939 101.794 136.792 100.835 134.041 97.1836C132.657 95.0571 129.94 92.6089 133.721 90.2087C134.436 89.9467 134.611 87.6535 134.219 86.5813C133.175 83.7222 131.417 81.1252 127.793 80.6306C124.039 79.7787 123.394 82.4471 122.13 84.5318C126.44 88.0164 126.856 94.1455 122.638 98.1242C122.054 98.7436 121.13 100.096 121.504 100.566C122.792 103.539 121.415 105.867 120.151 107.952C117.754 112.479 115.226 116.648 112.114 121.437ZM62.7355 94.363C69.3985 95.9716 74.8698 93.762 80.585 91.6656C77.1367 88.8779 78.9674 85.5722 79.4827 82.5464C78.3767 81.7363 77.5147 81.0393 76.4088 80.2292C75.059 79.3059 73.7264 78.9842 71.9575 80.2409C67.7226 83.618 64.367 88.2936 62.7355 94.363ZM27.4511 148.034C33.9114 155.188 41.5842 158.452 50.7133 157.941C50.0093 154.349 47.7974 152.729 44.2873 151.99C42.1098 151.573 39.9151 150.554 38.191 149.16C34.8561 146.128 31.4936 146.349 27.4511 148.034ZM76.1541 105.043C79.1662 109.41 82.9202 110.261 87.2409 109.892C87.2512 106.039 87.2616 102.185 87.5158 98.4443C83.961 100.356 80.1795 102.756 76.1541 105.043ZM44.5255 84.427C44.8827 84.296 45.1266 84.4092 45.4838 84.2782C46.078 79.805 46.9161 75.4449 47.5104 70.9717C47.0227 70.7454 46.7788 70.6322 46.2911 70.4058C44.4261 72.5083 42.4478 74.8551 40.5828 76.9576C41.984 79.6856 43.2548 82.0563 44.5255 84.427Z" fill="#020202"/>
</g>
</svg>
