<svg width="27" height="27" fill="none" xmlns="http://www.w3.org/2000/svg"><path d="M13.5 25a1 1 0 100 2v-2zm0-23a1 1 0 100-2v2zm8.088 2.423l.276-.962-3.693-1.058 2.708 2.725.71-.705zM5.412 22.577l-.276.962 3.693 1.058-2.708-2.725-.71.705zM25.724 6.65a1 1 0 10.552-1.923l-.552 1.923zM1.276 20.35a1 1 0 00-.552 1.923l.552-1.923zM24.265 13.5c0 6.41-4.876 11.5-10.765 11.5v2c7.106 0 12.765-6.102 12.765-13.5h-2zm-21.53 0C2.735 7.09 7.611 2 13.5 2V0C6.394 0 .735 6.102.735 13.5h2zM20.88 5.128c2.079 2.092 3.386 5.063 3.386 8.372h2c0-3.84-1.518-7.318-3.968-9.782l-1.418 1.41zM6.12 21.872C4.042 19.78 2.735 16.81 2.735 13.5h-2c0 3.84 1.518 7.318 3.967 9.782l1.42-1.41zM21.313 5.384l4.411 1.265.552-1.923-4.412-1.265-.551 1.923zM5.687 21.616l-4.411-1.265-.552 1.923 4.412 1.265.551-1.923z" fill="#fff"/></svg>